<?xml version="1.0" standalone="no"?>
<!DOCTYPE svg PUBLIC "-//W3C//DTD SVG 20010904//EN"
 "http://www.w3.org/TR/2001/REC-SVG-20010904/DTD/svg10.dtd">
<svg version="1.0" xmlns="http://www.w3.org/2000/svg"
 width="64.000000pt" height="64.000000pt" viewBox="0 0 64.000000 64.000000"
 preserveAspectRatio="xMidYMid meet">

<g transform="translate(0.000000,64.000000) scale(0.100000,-0.100000)"
fill="#000000" stroke="none">
<path d="M347 592 c-4 -6 -14 -9 -21 -6 -7 3 -20 -1 -27 -9 -8 -7 -18 -15 -24
-18 -5 -2 -9 -10 -9 -16 1 -7 -2 -10 -7 -7 -5 3 -10 -3 -10 -13 -7 -89 -6 -96
22 -127 17 -19 29 -25 29 -17 0 8 -12 29 -27 45 l-28 31 30 -27 c17 -14 39
-28 50 -31 18 -4 18 -5 1 -6 -13 -1 -17 -6 -13 -21 7 -27 -1 -25 -35 7 l-27
26 -7 -41 c-4 -23 -10 -42 -15 -42 -4 0 -3 15 2 33 11 39 -3 80 -37 102 -24
15 -24 15 -25 -17 l-2 -33 -4 30 c-5 32 -23 59 -23 34 0 -12 -2 -12 -10 1 -8
12 -10 10 -11 -10 0 -23 -1 -23 -9 -5 l-9 20 -1 -20 -1 -20 -9 20 c-8 19 -9
19 -9 -2 -1 -14 5 -23 14 -23 8 0 15 -4 15 -10 0 -5 -5 -10 -11 -10 -12 0 -40
26 -34 32 2 2 -5 4 -15 5 -18 2 -19 0 -4 -22 12 -18 12 -24 2 -28 -11 -4 -10
-6 0 -6 20 -1 48 -31 30 -32 -7 0 -4 -4 7 -9 13 -6 15 -9 5 -9 -8 -1 -2 -8 14
-16 16 -9 31 -14 33 -11 2 2 22 0 45 -5 27 -7 44 -6 53 1 9 8 15 8 20 0 3 -5
1 -10 -6 -10 -7 0 -9 -3 -6 -6 4 -4 13 -2 20 4 8 7 17 8 22 4 4 -4 6 3 3 14
-5 18 -2 21 16 16 11 -3 15 -7 8 -10 -13 -4 -17 -22 -4 -22 7 0 41 55 41 66 0
3 10 14 23 24 13 11 19 19 14 20 -6 0 -1 7 10 15 19 14 19 14 -1 15 -19 1 -19
2 1 10 20 8 40 60 23 60 -5 0 -6 6 -3 13 5 15 -27 57 -44 57 -6 0 -12 5 -14
12 -3 9 -6 9 -11 0z m-7 -44 c0 24 7 27 30 12 13 -8 13 -10 -1 -10 -16 0 -35
-53 -32 -87 0 -7 -4 -13 -11 -13 -6 0 -11 13 -11 29 0 16 4 27 9 23 9 -5 6 9
-9 53 -4 13 -1 12 9 -5 15 -25 15 -25 16 -2z m-69 -65 c13 -16 12 -17 -3 -4
-10 7 -18 15 -18 17 0 8 8 3 21 -13z m67 -59 c2 -1 -3 -4 -10 -7 -7 -2 -22 7
-32 20 l-19 25 29 -18 c16 -10 30 -19 32 -20z m-177 -40 c10 -12 2 -24 -15
-24 -6 0 -4 5 4 10 13 8 12 10 -4 10 -12 0 -16 5 -12 16 3 9 7 23 7 32 1 9 4
6 6 -8 3 -14 9 -30 14 -36z m-41 16 c-24 -15 -36 -11 -14 4 10 8 21 12 24 10
2 -3 -2 -9 -10 -14z m100 -30 c0 -31 -4 -40 -17 -40 -13 0 -14 3 -5 12 7 7 12
25 12 40 0 15 2 28 5 28 3 0 5 -18 5 -40z m-24 -18 c-11 -10 -15 4 -8 28 l7
25 3 -23 c2 -13 1 -26 -2 -30z m71 -23 c2 -12 -1 -18 -7 -14 -5 3 -10 16 -10
27 0 26 13 16 17 -13z"/>
<path d="M449 407 c-1 -17 -2 -18 -6 -4 -7 26 -33 2 -34 -32 -1 -17 -3 -20 -6
-8 -6 24 -23 11 -23 -18 0 -18 4 -22 20 -18 11 3 20 9 20 14 0 5 7 6 15 3 8
-4 13 -10 10 -14 -3 -4 9 -13 25 -20 17 -7 29 -15 27 -17 -3 -2 -20 4 -39 13
-33 15 -37 15 -76 -3 -39 -18 -40 -19 -21 -31 19 -12 18 -32 -2 -32 -6 0 -7 5
-4 10 3 6 1 10 -4 10 -6 0 -11 -12 -11 -27 1 -30 23 -67 33 -56 4 3 7 0 8 -8
0 -8 4 -6 9 6 8 18 9 19 9 1 1 -12 6 -16 17 -12 9 3 24 6 35 6 10 0 19 7 19
15 0 7 8 19 18 24 16 10 15 10 -3 11 -17 0 -18 2 -5 10 13 9 13 12 -2 24 -16
12 -16 14 7 24 14 6 31 9 39 6 21 -8 29 27 9 43 -16 13 -16 13 4 4 24 -12 50
-15 40 -5 -3 4 -2 15 4 25 7 15 6 17 -6 13 -9 -4 -15 0 -15 10 0 10 5 13 18 9
15 -6 15 -5 -2 12 -18 18 -19 18 -33 -1 -15 -18 -15 -18 -9 3 7 23 -4 29 -56
32 -22 1 -28 -4 -29 -22z m31 -70 c0 -5 -4 -5 -10 -2 -5 3 -10 14 -10 23 0 15
2 15 10 2 5 -8 10 -19 10 -23z m30 12 c0 -6 -4 -7 -10 -4 -5 3 -10 11 -10 16
0 6 5 7 10 4 6 -3 10 -11 10 -16z m40 17 c0 -11 -19 -15 -25 -6 -3 5 1 10 9
10 9 0 16 -2 16 -4z m-20 -62 c0 -2 -9 0 -20 6 -11 6 -20 13 -20 16 0 2 9 0
20 -6 11 -6 20 -13 20 -16z m-80 -37 c0 -9 -74 1 -78 11 -2 8 2 10 14 5 12 -4
15 -3 10 6 -6 8 2 7 23 -3 17 -9 31 -18 31 -19z m-50 -32 c-7 -9 -15 -13 -17
-11 -7 7 7 26 19 26 6 0 6 -6 -2 -15z m35 -5 c-3 -5 1 -10 9 -10 18 0 20 -8 7
-28 -6 -10 -10 -8 -15 10 -7 22 -7 22 -16 3 -8 -19 -9 -19 -9 2 -1 18 7 27 27
32 2 1 0 -3 -3 -9z m-68 -32 c-3 -8 -6 -5 -6 6 -1 11 2 17 5 13 3 -3 4 -12 1
-19z"/>
<path d="M362 330 c0 -14 2 -19 5 -12 2 6 2 18 0 25 -3 6 -5 1 -5 -13z"/>
<path d="M216 282 c-3 -5 1 -16 10 -23 11 -9 17 -10 23 -1 4 7 12 8 21 2 8 -6
13 -10 10 -11 -26 -4 -41 -8 -58 -13 -11 -4 -23 -2 -27 3 -3 7 0 8 9 5 20 -8
21 10 1 26 -15 13 -39 5 -30 -11 4 -5 -2 -6 -11 -2 -14 5 -16 3 -11 -12 6 -14
5 -15 -6 -7 -10 9 -17 6 -30 -8 -22 -26 -21 -30 4 -30 13 0 18 4 13 12 -4 7
-3 8 5 4 6 -4 19 -2 27 5 8 6 17 9 20 6 7 -7 -55 -40 -78 -41 -21 -1 -25 -21
-4 -21 7 0 20 -6 29 -13 13 -11 16 -9 20 15 l4 28 2 -27 c2 -39 21 -35 22 5 2
30 2 30 6 5 5 -30 20 -37 29 -14 3 8 12 12 20 9 8 -3 14 1 14 11 0 9 3 16 8
16 4 0 13 12 19 27 14 29 1 58 -22 49 -7 -2 -17 0 -23 6 -6 6 -12 6 -16 0z m1
-84 c-3 -8 -6 -5 -6 6 -1 11 2 17 5 13 3 -3 4 -12 1 -19z"/>
<path d="M305 170 c7 -110 14 -143 31 -129 10 8 11 16 3 32 -6 11 -18 54 -25
96 l-14 76 5 -75z"/>
<path d="M480 183 c0 -10 4 -14 8 -8 4 6 11 13 16 18 5 4 2 7 -7 7 -10 0 -17
-8 -17 -17z"/>
</g>
</svg>
